<?xml version="1.0" encoding="UTF-8" standalone="no"?>
<!DOCTYPE svg PUBLIC "-//W3C//DTD SVG 1.1//EN" "http://www.w3.org/Graphics/SVG/1.1/DTD/svg11.dtd">
<svg width="960.00" height="1620.00" viewBox="0.00 0.00 1920.00 3240.00" xmlns="http://www.w3.org/2000/svg" xmlns:xlink="http://www.w3.org/1999/xlink">
<g stroke-linecap="round" id="arrow">
<path d="M47.71,236.19 C48.14,235.85 51.35,234.55 51.93,234.50 C53.29,234.43 58.21,238.12 60.35,239.76 C74.00,250.30 110.26,278.55 110.44,278.64 C111.14,278.97 113.92,276.74 118.51,273.14 C133.25,261.76 165.91,236.78 166.21,236.53 C167.90,235.17 170.61,233.87 171.96,234.22 C173.44,234.65 175.13,238.14 174.68,239.29 C174.35,240.04 113.33,286.59 113.26,286.63 C113.08,286.71 111.22,286.70 109.41,286.81 C108.42,286.84 102.94,282.61 101.74,281.69 C87.87,271.01 50.22,241.79 49.90,241.56 C48.21,240.32 47.19,238.98 47.05,237.70 C47.01,237.11 47.23,236.61 47.71,236.19 Z" 
fill="none" stroke="rgb(0, 0, 0)" stroke-width="1.00" stroke-opacity="1.00" stroke-linejoin="round"/>
</g>
</svg>
