<?xml version="1.0" encoding="UTF-8" standalone="no"?>
<!DOCTYPE svg PUBLIC "-//W3C//DTD SVG 1.1//EN" "http://www.w3.org/Graphics/SVG/1.1/DTD/svg11.dtd">
<svg width="51.50" height="51.50" viewBox="0.00 0.00 103.00 103.00" xmlns="http://www.w3.org/2000/svg" xmlns:xlink="http://www.w3.org/1999/xlink">
<g stroke-linecap="round" transform="translate(-1750.00, -53.00)" id="darkT">
<path d="M1790.88,106.68 L1801.21,96.41 L1811.55,106.68 L1801.21,116.94 L1790.88,106.68 Z" fill="none" stroke="rgb(0, 0, 0)" stroke-width="1.00" stroke-opacity="1.00" stroke-linejoin="miter"/>
<path d="M1827.56,139.73 L1830.80,136.52 L1835.89,131.43 L1843.46,120.64 L1845.91,111.30 L1846.73,103.79 L1846.62,92.30 L1842.91,82.85 L1839.48,75.23 L1838.93,84.52 L1833.84,107.94 L1822.80,123.94 L1811.16,131.73 L1791.83,136.04 L1768.24,131.81 L1759.84,128.36 L1765.18,134.86 L1772.50,141.89 L1783.08,146.37 L1790.33,148.48 L1799.90,149.78 L1812.76,146.90 L1822.56,142.96 L1827.56,139.73 Z" fill="none" stroke="rgb(0, 0, 0)" stroke-width="1.00" stroke-opacity="1.00" stroke-linejoin="miter"/>
</g>
</svg>
