<?xml version="1.0" encoding="UTF-8" standalone="no"?>
<!-- Created with Inkscape (http://www.inkscape.org/) -->

<svg
   width="210mm"
   height="297mm"
   viewBox="0 0 210 297"
   version="1.1"
   id="svg1"
   xml:space="preserve"
   inkscape:version="1.4.3 (0d15f75, 2025-12-25)"
   sodipodi:docname="dashstar2.1.svg"
   xmlns:inkscape="http://www.inkscape.org/namespaces/inkscape"
   xmlns:sodipodi="http://sodipodi.sourceforge.net/DTD/sodipodi-0.dtd"
   xmlns="http://www.w3.org/2000/svg"
   xmlns:svg="http://www.w3.org/2000/svg"><sodipodi:namedview
     id="namedview1"
     pagecolor="#ffffff"
     bordercolor="#000000"
     borderopacity="0.25"
     inkscape:showpageshadow="2"
     inkscape:pageopacity="0.0"
     inkscape:pagecheckerboard="0"
     inkscape:deskcolor="#d1d1d1"
     inkscape:document-units="mm"
     inkscape:zoom="2.1543544"
     inkscape:cx="643.81237"
     inkscape:cy="500.14984"
     inkscape:window-width="1920"
     inkscape:window-height="1057"
     inkscape:window-x="-8"
     inkscape:window-y="-8"
     inkscape:window-maximized="1"
     inkscape:current-layer="layer1" /><defs
     id="defs1" /><g
     inkscape:label="Layer 1"
     inkscape:groupmode="layer"
     id="layer1"><g
       stroke-linecap="round"
       transform="matrix(0.13229167,0,0,0.13229167,166.17751,-28.427831)"
       id="dashstar"><path
         d="m 110.37374,903.12099 c 2.34055,-0.0589 13.82516,-9.03593 16.41516,-10.86593 2.9,-2.04 17.1111,-13.28506 26.0711,-21.27506 5.84,-5.23 17.3,-15.75 22.92,-21.03 0.13,-0.12 5.19,-3.8 8.84,-7.65 0.42,-0.45 4.18,-2.99 5.3,-3.05 1,-0.03 2.44,2.9 2.49,4.04 -0.02,0.82 -11.49,15.86 -12.24,16.72 -6.99,7.91 -14.66,17.44 -18.19,21.77 -5.32,6.59 -30.32,41.11 -30.58,41.76 -0.08,0.26 18.1,27.2 22.61,33.75 2.95,4.14 12.16,15.47 14,17.36 4.77,4.92 22.08,26.05 23.1,27.05 2.15,2.18 0.99,6.07 0.17,6.46 -1.66,0.12 -4.03,0.09 -4.92,-0.25 -0.89,-0.34 -15.62,-15.28 -19.46,-18.23 -2.44,-1.96 -18.72,-16.39 -22.17,-19.2 -16.92962,-13.44945 -32.67608,-24.83334 -34.73,-25.23 -0.46,-0.31 -31.78,22.61 -38.19,28 -19.67,17.08 -30.27,25.59 -35.96,32.96 -1.35,1.71 -4.67,2.21 -6.35,2.35 -1.59,-0.73 -2.59,-2.89 -2.05,-5.08 0.12,-0.46 6.14,-6.9 8.25,-9.38 2.13,-2.52 12.32,-15.48 18.33,-21.66 5.58,-5.79 33.16,-46.47 34.3,-48.04 0.35,-0.61 -0.71,-2 -3.97,-6.56 -5.04,-6.95 -24.87,-34.71 -33.86,-44.85 -1.72,-1.94 -3.16,-4.54 -3.85,-5.49 -0.1,-0.12 -8.16,-8.88 -9.08,-10.01 -1.08,-1.32 -3.89,-5.29 -7.51,-10.02 -1.95,-2.55 -2.96,-4.45 -2.04,-6.35 0.63,-1.27 1.27,-1.89 1.94,-1.87 1.12,0.06 4.88,2.6 5.3,3.05 3.64,3.84 7.38,6.25 8.88,7.74 12.86,12.63 29.57,27.23 32.91,29.75 6.57,4.84 18.130218,13.02549 20.550218,14.98549 2.149887,1.5922 10.499012,8.09429 12.773522,8.3455 z"
         fill="none"
         stroke="#000000"
         stroke-width="1"
         stroke-opacity="1"
         stroke-linejoin="round"
         id="path1"
         sodipodi:nodetypes="ccccccccccccccscccccccccccscccccccccc" /><path
         d="m 105.53,1259.99 c -0.54,-1.26 -2.84,-45.34 -3.33,-57.16 -0.28,-15.98 -0.68,-51.78 -0.01,-59.81 0.41,-4.96 2.45,-42.26 2.4,-42.6 -0.19,-1.75 0.59,-3.93 2.09,-5.12 0.44,-0.34 1.22,-0.61 2.35,-0.81 0.99,0.1 3.57,0.32 4.17,0.81 1.48,1.21 2.28,3.38 2.09,5.12 -0.04,0.34 3.05,50.35 3.04,56.46 -0.49,49.6 -3.43,101.84 -3.98,103.11 -1.08,2.47 -2.63198,3.6249 -4.38099,3.616 -1.7245,-0.01 -3.34901,-1.146 -4.43901,-3.616 z"
         fill="none"
         stroke="#000000"
         stroke-width="1"
         stroke-opacity="1"
         stroke-linejoin="round"
         id="path2"
         sodipodi:nodetypes="cccccccccccc" /><path
         d="m 105.53,1514.99 c -0.54,-1.26 -2.84,-45.34 -3.33,-57.16 -0.28,-15.98 -0.68,-51.78 -0.01,-59.81 0.41,-4.96 2.45,-42.26 2.4,-42.6 -0.19,-1.75 0.59,-3.93 2.09,-5.12 0.44,-0.34 1.7422,-0.61 2.8722,-0.81 0.99,0.1 3.0478,0.32 3.6478,0.81 1.48,1.21 2.28,3.38 2.09,5.12 -0.04,0.34 3.05,50.35 3.04,56.46 -0.49,49.6 -3.43,101.84 -3.98,103.11 -1.08,2.47 -2.50143,3.5524 -4.36648,3.529 -1.68099,0.052 -3.36352,-1.059 -4.45352,-3.529 z"
         fill="none"
         stroke="#000000"
         stroke-width="1"
         stroke-opacity="1"
         stroke-linejoin="round"
         id="path3"
         sodipodi:nodetypes="cccccccccccc" /></g></g></svg>
