<?xml version="1.0" encoding="UTF-8" standalone="no"?>
<!DOCTYPE svg PUBLIC "-//W3C//DTD SVG 1.1//EN" "http://www.w3.org/Graphics/SVG/1.1/DTD/svg11.dtd">
<svg width="83.50" height="340.00" viewBox="0.00 0.00 167.00 680.00" xmlns="http://www.w3.org/2000/svg" xmlns:xlink="http://www.w3.org/1999/xlink">
<g stroke-linecap="round" transform="translate(-26.00, -839.00)" id="dashstar">
<path d="M111.07,903.15 C111.96,902.83 127.10,891.30 129.69,889.47 C132.59,887.43 143.90,878.97 152.86,870.98 C158.70,865.75 170.16,855.23 175.78,849.95 C175.91,849.83 180.97,846.15 184.62,842.30 C185.04,841.85 188.80,839.31 189.92,839.25 C190.92,839.22 192.36,842.15 192.41,843.29 C192.39,844.11 180.92,859.15 180.17,860.01 C173.18,867.92 165.51,877.45 161.98,881.78 C156.66,888.37 131.66,922.89 131.40,923.54 C131.32,923.80 149.50,950.74 154.01,957.29 C156.96,961.43 166.17,972.76 168.01,974.65 C172.78,979.57 190.09,1000.70 191.11,1001.70 C193.26,1003.88 192.10,1007.77 191.28,1008.16 C189.62,1008.28 187.25,1008.25 186.36,1007.91 C185.47,1007.57 170.74,992.63 166.90,989.68 C164.46,987.72 148.18,973.29 144.73,970.48 C139.71,966.42 126.38,957.47 122.51,954.40 C121.05,953.23 114.85,948.01 113.57,947.25 C112.98,946.90 110.42,945.55 110.00,945.25 C109.54,944.94 78.22,967.86 71.81,973.25 C52.14,990.33 41.54,998.84 35.85,1006.21 C34.50,1007.92 31.18,1008.42 29.50,1008.56 C27.91,1007.83 26.91,1005.67 27.45,1003.48 C27.57,1003.02 33.59,996.58 35.70,994.10 C37.83,991.58 48.02,978.62 54.03,972.44 C59.61,966.65 87.19,925.97 88.33,924.40 C88.68,923.79 87.62,922.40 84.36,917.84 C79.32,910.89 59.49,883.13 50.50,872.99 C48.78,871.05 47.34,868.45 46.65,867.50 C46.55,867.38 38.49,858.62 37.57,857.49 C36.49,856.17 33.68,852.20 30.06,847.47 C28.11,844.92 27.10,843.02 28.02,841.12 C28.65,839.85 29.29,839.23 29.96,839.25 C31.08,839.31 34.84,841.85 35.26,842.30 C38.90,846.14 42.64,848.55 44.14,850.04 C57.00,862.67 73.71,877.27 77.05,879.79 C83.62,884.63 97.24,894.15 99.66,896.11 C107.38,902.46 110.13,903.45 111.07,903.15 Z" 
fill="none" stroke="rgb(0, 0, 0)" stroke-width="1.00" stroke-opacity="1.00" stroke-linejoin="round"/>
<path d="M109.50,1263.49 C108.23,1263.76 106.62,1262.46 105.53,1259.99 C104.99,1258.73 102.69,1214.65 102.20,1202.83 C101.92,1186.85 101.52,1151.05 102.19,1143.02 C102.60,1138.06 104.64,1100.76 104.59,1100.42 C104.40,1098.67 105.18,1096.49 106.68,1095.30 C107.12,1094.96 107.90,1094.69 109.03,1094.49 C110.02,1094.59 112.60,1094.81 113.20,1095.30 C114.68,1096.51 115.48,1098.68 115.29,1100.42 C115.25,1100.76 118.34,1150.77 118.33,1156.88 C117.84,1206.48 114.90,1258.72 114.35,1259.99 C113.27,1262.46 111.66,1263.76 110.38,1263.49" 
fill="none" stroke="rgb(0, 0, 0)" stroke-width="1.00" stroke-opacity="1.00" stroke-linejoin="round"/>
<path d="M109.50,1518.49 C108.23,1518.76 106.62,1517.46 105.53,1514.99 C104.99,1513.73 102.69,1469.65 102.20,1457.83 C101.92,1441.85 101.52,1406.05 102.19,1398.02 C102.60,1393.06 104.64,1355.76 104.59,1355.42 C104.40,1353.67 105.18,1351.49 106.68,1350.30 C107.12,1349.96 107.90,1349.69 109.03,1349.49 C110.02,1349.59 112.60,1349.81 113.20,1350.30 C114.68,1351.51 115.48,1353.68 115.29,1355.42 C115.25,1355.76 118.34,1405.77 118.33,1411.88 C117.84,1461.48 114.90,1513.72 114.35,1514.99 C113.27,1517.46 111.66,1518.76 110.38,1518.49" 
fill="none" stroke="rgb(0, 0, 0)" stroke-width="1.00" stroke-opacity="1.00" stroke-linejoin="round"/>
</g>
</svg>
