<?xml version="1.0" encoding="UTF-8" standalone="no"?>
<!DOCTYPE svg PUBLIC "-//W3C//DTD SVG 1.1//EN" "http://www.w3.org/Graphics/SVG/1.1/DTD/svg11.dtd">
<svg width="83.50" height="340.00" viewBox="0.00 0.00 167.00 680.00" xmlns="http://www.w3.org/2000/svg" xmlns:xlink="http://www.w3.org/1999/xlink">
<g stroke-linecap="round" transform="translate(-26.00, -839.00)" id="dashstar">
<path d="M110.60,903.44 C111.19,902.53 122.67,894.09 126.41,891.73 C141.97,881.46 152.54,871.16 162.49,862.25 C164.19,860.72 165.95,860.07 166.56,859.67 C166.84,859.48 177.17,848.65 177.58,848.33 C178.51,847.63 181.07,846.09 182.33,844.73 C183.48,843.52 186.00,840.83 186.20,840.73 C186.44,840.62 186.74,841.00 186.97,840.88 C187.99,840.41 188.80,839.31 189.92,839.25 C190.92,839.22 192.36,842.15 192.41,843.29 C192.39,844.11 180.92,859.15 180.17,860.01 C173.18,867.92 165.51,877.45 161.98,881.78 C156.66,888.37 131.66,922.89 131.40,923.54 C131.32,923.80 149.50,950.74 154.01,957.29 C161.81,968.24 172.92,979.85 173.08,980.20 C173.44,980.97 173.38,981.91 173.86,982.61 C174.01,982.84 178.22,986.04 179.52,987.34 C179.79,987.60 183.67,993.68 186.16,996.40 C186.54,996.81 190.11,1000.69 190.91,1001.49 C192.28,1002.89 192.85,1005.31 192.30,1007.14 C192.17,1007.55 191.82,1007.90 191.28,1008.16 C189.76,1008.28 186.68,1008.61 186.32,1008.38 C185.73,1007.98 185.29,1006.12 184.22,1005.32 C181.95,1003.57 173.95,995.73 163.70,987.00 C161.74,985.34 145.43,970.96 141.84,968.20 C137.42,964.83 125.27,956.73 119.65,952.05 C115.58,948.62 112.00,945.77 111.07,945.25 C110.09,944.72 80.00,966.56 75.15,970.49 C71.71,973.27 55.41,987.74 52.99,989.67 C49.07,992.67 34.59,1006.14 34.44,1006.44 C34.11,1007.06 34.11,1007.92 33.56,1008.38 C33.25,1008.64 30.74,1008.56 29.50,1008.56 C27.92,1007.82 26.88,1005.62 27.45,1003.48 C27.59,1003.01 34.55,995.55 35.70,994.10 C36.99,992.47 40.09,987.24 43.50,984.63 C45.08,983.43 45.92,982.76 46.03,982.61 C46.50,981.91 47.00,979.77 48.47,978.27 C56.13,970.24 62.31,962.30 64.06,959.83 C72.56,947.62 86.06,927.54 88.33,924.40 C88.68,923.79 87.62,922.40 84.36,917.84 C79.32,910.89 59.49,883.13 50.50,872.99 C48.78,871.05 47.34,868.45 46.65,867.50 C46.55,867.38 38.49,858.62 37.57,857.49 C36.49,856.17 33.68,852.20 30.06,847.47 C28.11,844.92 27.10,843.02 28.02,841.12 C28.65,839.85 29.29,839.23 29.96,839.25 C31.08,839.31 34.83,841.85 35.26,842.30 C38.89,846.14 43.45,849.40 44.65,850.68 C46.28,852.39 49.53,855.79 51.13,857.48 C52.42,858.85 55.59,860.66 60.25,864.79 C66.72,870.66 73.62,877.22 84.02,884.98 C91.73,890.63 109.18,903.28 109.28,903.44" 
fill="none" stroke="rgb(0, 0, 0)" stroke-width="1.00" stroke-opacity="1.00" stroke-linejoin="round"/>
<path d="M109.50,1263.49 C108.23,1263.76 106.62,1262.46 105.53,1259.99 C104.99,1258.73 102.69,1214.65 102.20,1202.83 C101.92,1186.85 101.52,1151.05 102.19,1143.02 C102.60,1138.06 104.64,1100.76 104.59,1100.42 C104.40,1098.67 105.18,1096.49 106.68,1095.30 C107.12,1094.96 107.90,1094.69 109.03,1094.49 C110.02,1094.59 112.60,1094.81 113.20,1095.30 C114.68,1096.51 115.48,1098.68 115.29,1100.42 C115.25,1100.76 118.34,1150.77 118.33,1156.88 C117.84,1206.48 114.90,1258.72 114.35,1259.99 C113.27,1262.46 111.66,1263.76 110.38,1263.49" 
fill="none" stroke="rgb(0, 0, 0)" stroke-width="1.00" stroke-opacity="1.00" stroke-linejoin="round"/>
<path d="M109.50,1518.49 C108.23,1518.76 106.62,1517.46 105.53,1514.99 C104.99,1513.73 102.69,1469.65 102.20,1457.83 C101.92,1441.85 101.52,1406.05 102.19,1398.02 C102.60,1393.06 104.64,1355.76 104.59,1355.42 C104.40,1353.67 105.18,1351.49 106.68,1350.30 C107.12,1349.96 107.90,1349.69 109.03,1349.49 C110.02,1349.59 112.60,1349.81 113.20,1350.30 C114.68,1351.51 115.48,1353.68 115.29,1355.42 C115.25,1355.76 118.34,1405.77 118.33,1411.88 C117.84,1461.48 114.90,1513.72 114.35,1514.99 C113.27,1517.46 111.66,1518.76 110.38,1518.49" 
fill="none" stroke="rgb(0, 0, 0)" stroke-width="1.00" stroke-opacity="1.00" stroke-linejoin="round"/>
</g>
</svg>
