<?xml version="1.0" encoding="UTF-8" standalone="no"?>
<!DOCTYPE svg PUBLIC "-//W3C//DTD SVG 1.1//EN" "http://www.w3.org/Graphics/SVG/1.1/DTD/svg11.dtd">
<svg width="960.00" height="1620.00" viewBox="0.00 0.00 1920.00 3240.00" xmlns="http://www.w3.org/2000/svg" xmlns:xlink="http://www.w3.org/1999/xlink">
	<defs>
		<style type="text/css"><![CDATA[
			:root { --color1: #464A51; --color2: #120000; }
			*[fill="white"] { fill: var(--color1) !important; }
			*[fill="black"] { fill: var(--color2) !important; }
		]]></style>
	</defs>
<g stroke-linecap="round" id="flower">
<path d="M1442.00,2580.50 C1438.72,2580.89 1431.53,2581.29 1428.66,2580.72 C1426.01,2580.16 1419.69,2577.42 1416.49,2575.42 C1413.23,2573.37 1405.93,2567.29 1403.52,2564.87 C1400.58,2561.84 1398.58,2556.84 1398.38,2553.62 C1398.21,2549.81 1399.99,2544.09 1401.74,2541.85 C1403.77,2539.32 1454.44,2495.57 1454.50,2495.38 C1454.61,2494.92 1447.20,2492.69 1443.57,2490.23 C1440.43,2488.04 1435.65,2483.37 1433.50,2480.38 C1431.58,2477.66 1427.51,2469.94 1426.81,2467.12 C1426.12,2464.05 1427.42,2459.17 1429.78,2454.93 C1433.13,2449.17 1434.14,2447.55 1436.93,2443.45 C1440.46,2438.36 1453.93,2429.09 1459.45,2425.28 C1488.56,2405.98 1524.22,2382.29 1524.25,2382.25 C1524.83,2381.40 1525.66,2378.76 1526.89,2377.46 C1532.10,2371.96 1538.35,2366.43 1540.60,2364.68 C1543.28,2362.65 1548.50,2361.88 1552.94,2361.85 C1555.59,2361.89 1610.17,2364.68 1614.50,2365.12 C1619.96,2365.71 1623.67,2366.93 1627.25,2368.88 C1628.40,2369.51 1636.87,2374.60 1640.30,2376.51 C1642.20,2377.54 1643.83,2377.76 1644.85,2377.11 C1645.72,2376.47 1645.94,2375.10 1645.38,2374.08 C1643.42,2370.84 1635.07,2351.38 1634.90,2350.97 C1633.58,2347.87 1627.84,2339.50 1627.11,2338.45 C1626.19,2337.05 1626.38,2334.89 1627.55,2333.86 C1628.51,2333.06 1636.72,2327.62 1639.84,2325.29 C1649.92,2317.45 1660.95,2309.46 1666.52,2305.72 C1687.23,2292.22 1697.41,2286.96 1697.88,2286.88 C1700.01,2286.53 1702.35,2287.38 1704.16,2289.19 C1706.49,2291.59 1711.28,2297.67 1712.06,2298.75 C1715.23,2303.19 1721.41,2317.56 1722.57,2323.27 C1723.16,2326.25 1724.09,2333.11 1724.55,2336.53 C1724.81,2338.22 1725.38,2339.00 1726.06,2338.33 C1726.72,2337.68 1731.80,2332.16 1734.39,2330.01 C1737.29,2327.62 1743.46,2322.92 1746.61,2320.71 C1751.05,2317.69 1756.04,2315.12 1758.12,2315.62 C1759.14,2315.91 1761.13,2317.35 1761.75,2318.25 C1762.96,2320.10 1764.42,2326.87 1764.71,2330.72 C1764.93,2334.15 1763.77,2339.57 1762.50,2343.00 C1760.95,2347.09 1758.00,2352.37 1755.54,2355.37 C1751.78,2359.92 1744.12,2367.83 1737.88,2373.75 C1731.25,2379.95 1719.82,2389.56 1719.50,2389.88 C1718.46,2390.96 1717.91,2391.71 1717.88,2392.12 C1717.85,2392.73 1721.14,2392.52 1722.50,2392.00 C1725.04,2390.97 1739.39,2377.08 1741.12,2375.75 C1742.49,2374.72 1749.19,2371.02 1749.75,2371.12 C1751.25,2371.46 1758.31,2378.44 1759.17,2379.69 C1760.23,2381.27 1760.75,2383.28 1760.43,2384.60 C1759.89,2386.51 1757.51,2389.64 1754.29,2392.51 C1753.06,2393.63 1752.96,2394.69 1754.17,2395.07 C1756.15,2395.62 1762.93,2395.35 1765.12,2395.00 C1766.80,2394.72 1784.02,2390.32 1788.71,2388.72 C1791.80,2387.64 1798.40,2385.44 1801.57,2385.53 C1804.36,2385.66 1809.01,2388.91 1812.02,2392.19 C1813.43,2393.80 1814.32,2396.03 1814.12,2397.62 C1814.10,2397.77 1799.35,2416.21 1797.23,2418.70 C1792.62,2424.07 1781.21,2434.66 1775.87,2439.65 C1770.87,2444.50 1761.05,2454.42 1757.50,2456.54 C1755.04,2457.97 1737.02,2464.30 1733.75,2465.00 C1731.57,2465.50 1730.37,2465.87 1730.12,2466.12 C1729.43,2466.95 1738.93,2468.32 1743.23,2469.28 C1748.78,2470.56 1754.53,2473.00 1756.62,2475.38 C1756.66,2475.41 1759.87,2479.77 1760.00,2480.00 C1761.00,2481.78 1761.17,2483.19 1760.51,2484.71 C1758.59,2488.82 1756.61,2491.58 1752.89,2495.44 C1750.35,2498.06 1740.81,2508.87 1734.30,2514.93 C1729.88,2518.99 1715.39,2529.62 1711.71,2531.83 C1708.74,2533.61 1699.87,2537.23 1699.88,2537.25 C1699.95,2538.19 1702.50,2540.21 1703.55,2542.09 C1704.59,2543.97 1706.64,2547.59 1707.62,2548.88 C1708.62,2550.16 1710.77,2551.78 1711.29,2552.32 C1712.92,2554.02 1716.09,2561.50 1717.29,2565.53 C1718.47,2569.66 1718.45,2575.93 1717.50,2578.75 C1716.45,2581.71 1712.57,2587.48 1710.52,2590.18 C1708.69,2592.57 1704.16,2596.81 1702.25,2598.00 C1699.90,2599.43 1684.04,2604.76 1679.50,2605.13 C1677.49,2605.29 1669.83,2605.23 1666.49,2605.19 C1661.68,2605.11 1655.93,2604.41 1652.62,2602.90 C1651.33,2602.31 1645.22,2598.83 1644.62,2599.25 C1643.63,2600.00 1642.31,2603.19 1640.47,2604.79 C1634.02,2610.47 1622.37,2618.05 1616.69,2620.38 C1612.89,2621.93 1594.86,2628.33 1589.24,2629.72 C1585.95,2630.52 1577.35,2632.15 1573.64,2632.46 C1569.24,2632.78 1564.57,2631.79 1561.67,2629.93 C1558.58,2627.91 1550.89,2622.93 1548.45,2621.22 C1545.30,2618.96 1544.74,2615.03 1544.62,2615.00 C1543.92,2614.82 1532.97,2616.84 1531.15,2617.24 C1527.10,2618.11 1521.46,2617.88 1517.90,2616.92 C1514.36,2615.92 1509.03,2612.87 1506.14,2610.18 C1503.66,2607.84 1498.19,2601.87 1496.96,2599.97 C1495.24,2597.23 1494.17,2589.96 1494.38,2586.75 C1494.49,2584.68 1495.13,2580.07 1494.88,2579.88 C1494.77,2579.80 1486.28,2582.49 1483.00,2582.00 C1481.92,2581.81 1478.03,2580.09 1477.02,2579.37 C1474.29,2577.36 1471.27,2571.96 1469.69,2567.87 C1468.21,2563.97 1467.43,2560.00 1467.38,2560.00 C1466.94,2560.01 1462.70,2565.58 1460.38,2568.00 C1458.42,2570.02 1452.29,2575.22 1449.07,2577.45 C1445.84,2579.65 1443.57,2580.29 1442.00,2580.50 Z"
fill="white" stroke="rgb(0, 0, 0)" stroke-width="1.00" stroke-opacity="1.00" stroke-linejoin="round"/>
<path d="M1546.77,2613.15 C1546.53,2613.73 1542.63,2615.18 1541.02,2615.49 C1538.82,2615.88 1536.59,2615.76 1534.66,2615.19 C1530.91,2614.00 1525.76,2611.50 1523.98,2610.38 C1521.64,2608.89 1516.59,2604.66 1514.90,2602.44 C1513.14,2600.06 1511.08,2594.25 1510.19,2589.91 C1509.33,2585.58 1508.86,2578.42 1509.10,2573.51 C1509.30,2569.70 1509.84,2558.26 1509.86,2558.03 C1510.15,2554.59 1511.55,2550.65 1514.19,2544.16 C1519.06,2532.11 1527.69,2515.81 1527.82,2515.63 C1527.99,2515.39 1526.41,2522.41 1526.46,2526.76 C1526.51,2528.68 1527.00,2530.71 1527.82,2532.75 C1528.51,2534.52 1528.38,2536.10 1527.37,2538.52 C1525.46,2542.98 1524.99,2546.11 1524.52,2551.72 C1524.28,2555.15 1523.76,2563.07 1523.71,2566.45 C1523.67,2570.77 1524.72,2576.35 1526.43,2580.78 C1527.18,2582.68 1531.41,2592.21 1532.58,2595.14 C1534.42,2599.69 1537.17,2603.88 1540.02,2606.55 C1541.57,2607.99 1546.98,2612.50 1546.77,2613.15 Z" 
fill="black" stroke="rgb(0, 0, 0)" stroke-width="1.00" stroke-opacity="1.00" stroke-linejoin="round"/>
<path d="M1495.34,2578.66 C1495.16,2579.11 1497.61,2576.94 1498.96,2575.35 C1501.64,2572.15 1503.10,2567.31 1503.58,2563.22 C1504.35,2556.34 1506.43,2544.25 1508.50,2536.27 C1510.04,2530.13 1511.59,2516.96 1513.69,2512.66 C1515.08,2509.89 1528.65,2487.09 1528.88,2487.09 C1529.51,2487.19 1529.51,2489.97 1528.86,2491.70 C1527.69,2494.79 1524.42,2501.42 1522.81,2504.13 C1521.75,2505.92 1516.82,2513.54 1515.52,2517.59 C1514.60,2520.89 1510.34,2535.66 1508.68,2542.81 C1507.59,2547.61 1506.60,2553.47 1506.78,2556.51 C1506.95,2559.70 1506.63,2561.72 1505.46,2564.39 C1504.18,2567.19 1495.50,2578.32 1495.34,2578.66 Z" 
fill="black" stroke="rgb(0, 0, 0)" stroke-width="1.00" stroke-opacity="1.00" stroke-linejoin="round"/>
<path d="M1474.05,2526.17 C1473.62,2526.31 1473.10,2509.26 1473.62,2507.53 C1474.32,2505.37 1481.16,2499.39 1481.82,2499.66 C1482.35,2499.88 1484.93,2503.10 1485.50,2503.52 C1487.27,2504.87 1493.02,2504.74 1493.00,2504.98 C1492.77,2506.41 1484.08,2510.44 1482.72,2512.60 C1482.31,2513.28 1480.95,2515.47 1479.74,2516.71 C1478.58,2517.92 1475.38,2525.58 1474.05,2526.17 Z" 
fill="black" stroke="rgb(0, 0, 0)" stroke-width="1.00" stroke-opacity="1.00" stroke-linejoin="round"/>
<path d="M1456.38,2495.31 C1458.29,2495.64 1461.50,2495.80 1463.44,2495.50 C1465.14,2495.23 1473.31,2491.33 1477.02,2489.68 C1482.18,2487.36 1485.44,2484.69 1486.50,2482.25" 
fill="black" stroke="rgb(0, 0, 0)" stroke-width="1.00" stroke-opacity="1.00" stroke-linejoin="round"/>
<path d="M1493.81,2469.00 C1493.43,2469.05 1497.96,2460.10 1499.41,2455.92 C1500.49,2452.72 1503.15,2441.58 1503.31,2440.79 C1504.55,2434.71 1506.40,2429.24 1508.64,2426.49 C1508.90,2426.19 1524.39,2410.13 1529.45,2404.43 C1531.26,2402.53 1536.58,2397.60 1539.01,2396.02 C1543.67,2393.03 1558.84,2386.98 1565.20,2385.02 C1573.11,2382.61 1587.02,2380.14 1594.38,2380.18 C1594.49,2380.18 1616.25,2380.89 1623.32,2381.10 C1627.29,2381.31 1633.47,2382.34 1637.01,2383.89 C1638.78,2384.69 1640.88,2386.02 1641.67,2386.89 C1642.41,2387.76 1642.95,2390.02 1642.91,2391.68 C1642.82,2393.50 1642.12,2395.50 1641.12,2396.81 C1640.77,2397.25 1635.76,2402.67 1635.29,2402.55 C1634.92,2402.43 1632.43,2399.39 1631.67,2398.83 C1630.69,2398.14 1628.91,2397.82 1627.31,2398.17 C1620.47,2399.91 1602.33,2404.00 1597.50,2404.77 C1591.49,2405.71 1574.99,2406.62 1570.00,2408.20 C1563.91,2410.18 1547.71,2418.11 1544.50,2420.42 C1542.82,2421.65 1532.73,2431.72 1525.57,2438.18 C1520.63,2442.64 1507.89,2454.13 1506.81,2455.20 C1504.44,2457.57 1494.14,2468.89 1493.81,2469.00 Z" 
fill="black" stroke="rgb(0, 0, 0)" stroke-width="1.00" stroke-opacity="1.00" stroke-linejoin="round"/>
<path d="M1492.49,2503.76 C1492.19,2502.83 1500.22,2481.55 1503.01,2477.37 C1505.25,2474.05 1522.52,2458.63 1523.92,2457.30 C1525.44,2455.85 1528.34,2452.78 1528.17,2453.23 C1527.99,2453.71 1525.28,2457.66 1525.08,2458.21 C1524.70,2459.19 1524.77,2462.88 1524.84,2464.45 C1524.96,2467.19 1525.51,2468.99 1526.77,2470.32 C1527.59,2471.15 1530.99,2472.73 1532.21,2472.95 C1534.69,2473.33 1551.63,2466.39 1555.70,2464.55 C1559.75,2462.68 1564.36,2460.19 1566.86,2458.05 C1568.90,2456.28 1573.43,2451.03 1574.92,2448.82 C1576.52,2446.40 1580.53,2438.54 1582.18,2436.61 C1583.90,2434.61 1591.02,2429.75 1593.40,2427.72 C1598.13,2423.64 1605.69,2415.01 1606.78,2414.26 C1608.00,2413.44 1611.34,2412.23 1612.60,2412.19 C1613.55,2412.18 1616.74,2413.15 1616.36,2413.41 C1615.93,2413.69 1608.02,2415.42 1605.52,2417.32 C1602.73,2419.48 1599.11,2425.84 1598.42,2426.84 C1596.14,2430.13 1592.62,2433.26 1588.66,2435.95 C1585.88,2437.86 1580.75,2441.99 1579.29,2444.85 C1577.68,2448.51 1574.36,2453.52 1572.43,2455.60 C1570.48,2457.65 1567.51,2459.63 1563.74,2461.62 C1558.62,2464.34 1552.96,2467.79 1550.46,2470.45 C1547.50,2473.66 1537.99,2490.79 1536.72,2492.86 C1535.51,2494.83 1531.47,2500.55 1531.37,2500.38 C1531.25,2500.14 1531.64,2486.77 1531.27,2486.29 C1530.65,2485.88 1530.02,2485.47 1529.40,2485.07 C1529.01,2484.56 1532.11,2479.96 1534.27,2478.46 C1535.73,2477.45 1535.86,2476.21 1534.75,2475.39 C1534.23,2475.06 1532.25,2477.36 1531.56,2478.12 C1529.40,2480.18 1523.77,2486.36 1522.54,2487.51 C1521.51,2488.46 1514.82,2493.30 1511.87,2496.40 C1509.46,2498.92 1502.99,2502.14 1502.16,2502.72 C1501.45,2503.22 1498.68,2505.57 1498.22,2505.73 C1496.38,2506.28 1492.81,2504.63 1492.49,2503.76 Z" 
fill="black" stroke="rgb(0, 0, 0)" stroke-width="1.00" stroke-opacity="1.00" stroke-linejoin="round"/>
<path d="M1537.10,2535.12 C1536.14,2533.58 1536.18,2529.91 1537.38,2523.85 C1537.72,2522.16 1539.49,2514.22 1541.03,2510.69 C1543.78,2504.46 1549.83,2493.84 1554.69,2486.53 C1558.36,2481.12 1569.49,2466.45 1571.75,2464.59 C1571.91,2464.49 1570.26,2467.57 1570.06,2468.35 C1569.79,2469.40 1570.27,2479.56 1570.53,2480.75 C1571.24,2483.91 1574.40,2488.44 1577.29,2491.17 C1577.99,2491.83 1580.82,2494.45 1581.80,2494.93 C1582.63,2495.32 1586.72,2496.17 1587.25,2495.96 C1587.90,2495.68 1590.20,2493.76 1590.88,2493.33 C1592.31,2492.37 1593.56,2490.51 1593.75,2488.97 C1594.32,2481.57 1595.41,2469.29 1595.51,2468.91 C1595.57,2468.73 1595.96,2476.20 1596.78,2479.46 C1597.94,2483.96 1604.09,2499.41 1607.00,2506.53 C1610.45,2514.60 1616.16,2524.05 1621.99,2531.22 C1624.39,2534.15 1629.36,2539.43 1631.63,2541.25 C1634.27,2543.33 1641.35,2547.29 1643.05,2548.32 C1644.45,2549.23 1645.25,2551.23 1644.69,2552.77 C1644.28,2553.84 1639.69,2562.25 1636.80,2564.98 C1632.86,2568.64 1627.73,2572.63 1624.91,2573.25 C1622.63,2573.70 1615.86,2573.48 1611.84,2572.26 C1610.03,2571.69 1605.66,2570.01 1604.81,2569.40 C1603.35,2568.32 1600.81,2562.44 1598.50,2558.09 C1593.32,2548.68 1587.26,2536.52 1585.33,2531.01 C1583.19,2524.78 1581.44,2510.07 1580.87,2507.67 C1580.47,2506.13 1579.71,2505.81 1578.85,2506.83 C1575.07,2511.49 1561.62,2523.74 1559.92,2525.26 C1552.35,2532.27 1545.36,2536.78 1543.67,2537.19 C1540.51,2537.88 1537.79,2536.14 1537.10,2535.12 Z" 
fill="black" stroke="rgb(0, 0, 0)" stroke-width="1.00" stroke-opacity="1.00" stroke-linejoin="round"/>
<path d="M1596.73,2461.87 C1596.37,2461.34 1598.31,2455.39 1598.61,2455.11 C1598.89,2454.88 1599.64,2458.97 1599.92,2459.43 C1600.33,2460.12 1603.57,2461.14 1603.68,2461.21 C1603.91,2461.36 1607.86,2465.95 1612.80,2469.83 C1619.32,2474.77 1629.62,2482.53 1635.26,2486.54 C1638.88,2489.10 1644.75,2492.93 1647.51,2493.18 C1648.91,2493.28 1648.45,2492.37 1646.72,2491.21 C1643.11,2488.77 1623.04,2475.93 1620.54,2473.15 C1619.95,2472.48 1620.39,2472.55 1621.40,2473.28 C1625.01,2475.88 1631.15,2478.92 1635.33,2480.49 C1637.86,2481.43 1646.15,2484.10 1649.02,2484.09 C1650.09,2484.07 1650.47,2483.92 1650.17,2483.66 C1649.95,2483.48 1641.14,2480.39 1636.23,2477.60 C1633.28,2475.92 1620.99,2469.69 1611.18,2463.71 C1606.60,2460.84 1600.65,2456.85 1600.11,2455.43 C1599.52,2453.61 1601.66,2448.00 1602.22,2447.58 C1602.51,2447.40 1603.62,2451.35 1604.24,2452.43 C1605.02,2453.87 1613.38,2461.84 1614.36,2462.64 C1617.18,2464.94 1624.24,2468.66 1627.59,2469.97 C1631.27,2471.37 1638.69,2471.68 1641.74,2471.71 C1644.18,2471.73 1652.42,2471.96 1654.87,2471.60 C1656.93,2471.27 1660.35,2470.30 1662.60,2469.42 C1664.53,2468.62 1666.50,2467.05 1666.98,2465.86 C1667.30,2464.95 1666.59,2462.85 1665.74,2461.96 C1664.28,2460.51 1644.74,2446.18 1644.10,2445.81 C1643.24,2445.29 1641.79,2445.43 1641.38,2444.51 C1641.27,2444.16 1664.10,2443.06 1671.54,2441.53 C1679.83,2439.81 1687.28,2437.06 1697.87,2432.31 C1702.16,2430.35 1705.60,2428.45 1705.97,2426.64 C1706.22,2425.21 1706.21,2421.05 1705.85,2419.90 C1705.45,2418.69 1703.38,2416.87 1702.30,2416.59 C1700.84,2416.28 1692.55,2418.53 1691.18,2418.72 C1686.92,2419.33 1684.76,2420.02 1680.16,2422.08 C1676.90,2423.64 1670.13,2426.91 1667.42,2428.38 C1664.45,2430.01 1658.36,2434.87 1657.59,2435.40 C1656.25,2436.30 1652.93,2437.89 1652.50,2437.76 C1651.16,2437.21 1662.55,2426.01 1669.58,2418.51 C1673.62,2414.23 1685.27,2403.06 1690.50,2398.19 C1696.19,2392.73 1705.55,2381.75 1709.64,2376.25 C1712.81,2371.94 1716.35,2366.18 1717.45,2362.41 C1718.45,2358.81 1719.68,2339.58 1720.17,2331.86 C1720.39,2327.72 1720.09,2322.19 1719.20,2319.27 C1717.56,2313.99 1715.13,2306.13 1715.20,2305.98 C1715.48,2305.57 1719.31,2313.60 1720.52,2317.28 C1721.66,2320.83 1724.49,2336.77 1724.54,2340.64 C1724.57,2343.94 1723.68,2355.54 1723.72,2355.55 C1724.07,2355.55 1737.08,2335.62 1737.83,2334.46 C1739.54,2331.85 1742.72,2328.88 1746.90,2325.62 C1749.17,2323.92 1752.29,2321.91 1753.65,2321.48 C1755.05,2321.05 1758.99,2321.10 1760.15,2321.48 C1761.12,2321.83 1762.79,2323.40 1763.35,2324.31 C1764.25,2325.94 1764.47,2331.20 1764.20,2334.92 C1763.88,2338.67 1762.02,2344.91 1760.03,2348.85 C1758.05,2352.71 1755.43,2356.31 1752.73,2358.55 C1750.07,2360.74 1738.77,2373.27 1733.55,2377.92 C1728.18,2382.70 1718.94,2389.99 1714.68,2394.40 C1711.14,2398.01 1693.28,2411.42 1690.32,2413.75 C1688.89,2414.87 1688.66,2415.63 1690.31,2415.31 C1690.64,2415.25 1712.85,2409.88 1719.16,2407.98 C1726.07,2405.86 1740.14,2398.23 1746.04,2394.18 C1752.82,2389.50 1758.10,2383.82 1758.02,2382.87 C1757.92,2381.73 1756.19,2380.29 1757.08,2379.56 C1757.71,2379.07 1760.81,2382.30 1760.65,2383.58 C1760.33,2386.11 1755.99,2390.78 1751.28,2396.71 C1750.92,2397.17 1735.90,2412.28 1729.87,2418.25 C1722.97,2424.87 1712.22,2433.18 1706.90,2437.34 C1704.24,2439.34 1696.94,2443.07 1696.98,2443.20 C1697.22,2443.67 1715.67,2443.44 1724.60,2443.13 C1729.88,2442.86 1734.48,2441.80 1736.85,2439.77 C1737.39,2439.31 1741.23,2436.39 1741.58,2436.70 C1742.29,2437.42 1741.66,2440.63 1740.58,2441.81 C1738.16,2444.40 1713.09,2469.42 1709.22,2473.06 C1705.92,2476.13 1699.61,2479.76 1699.70,2480.23 C1700.18,2482.16 1705.36,2485.23 1708.10,2488.83 C1709.53,2490.76 1710.87,2493.54 1710.86,2494.71 C1710.80,2495.84 1709.50,2497.36 1707.94,2498.33 C1706.22,2499.35 1699.90,2502.28 1699.46,2502.39 C1695.44,2503.42 1675.67,2502.19 1675.21,2502.35 C1674.39,2502.70 1675.15,2504.08 1677.23,2506.49 C1678.35,2507.78 1683.42,2514.43 1684.92,2516.79 C1687.12,2520.28 1690.45,2527.83 1690.50,2530.08 C1690.49,2532.38 1684.26,2540.43 1684.68,2540.80 C1686.06,2541.79 1698.77,2535.51 1707.17,2530.83 C1713.68,2527.12 1728.55,2518.51 1731.66,2515.69 C1734.75,2512.87 1756.45,2489.23 1757.03,2488.63 C1758.35,2487.24 1759.47,2480.99 1759.56,2480.94 C1759.75,2480.86 1760.51,2484.58 1760.51,2485.55 C1760.48,2487.14 1756.40,2491.32 1754.38,2493.29 C1751.78,2495.90 1739.69,2510.16 1733.80,2515.53 C1728.23,2520.56 1717.79,2527.46 1707.42,2533.38 C1702.40,2536.30 1696.98,2540.37 1696.38,2540.63 C1694.20,2541.51 1683.45,2541.52 1682.15,2541.96 C1681.28,2542.27 1677.13,2546.43 1672.92,2548.72 C1668.42,2551.08 1664.75,2552.12 1661.21,2551.66 C1657.26,2551.09 1651.54,2549.68 1648.66,2548.35 C1646.03,2547.12 1640.30,2543.42 1637.63,2541.11 C1634.67,2538.52 1629.62,2533.13 1627.36,2530.14 C1622.49,2523.62 1616.44,2511.95 1612.39,2502.36 C1608.64,2493.25 1603.25,2478.69 1602.35,2474.93 C1601.44,2471.06 1600.75,2463.19 1599.60,2462.47 C1598.78,2461.94 1597.27,2462.69 1596.73,2461.87 Z" 
fill="black" stroke="rgb(0, 0, 0)" stroke-width="1.00" stroke-opacity="1.00" stroke-linejoin="round"/>
<path d="M1642.44,2440.62 C1641.59,2440.18 1639.24,2436.84 1638.50,2435.12 C1637.92,2433.72 1634.98,2418.57 1635.12,2418.19 C1635.63,2417.04 1638.10,2416.13 1640.92,2415.85 C1644.94,2415.44 1651.08,2415.18 1651.06,2415.50 C1650.93,2416.68 1649.57,2417.36 1648.94,2418.38 C1648.41,2419.19 1646.89,2424.58 1646.62,2425.25 C1646.22,2426.30 1642.04,2434.53 1642.31,2436.31 C1642.46,2437.24 1643.98,2440.32 1643.94,2440.50 C1643.79,2440.98 1643.29,2441.03 1642.44,2440.62 Z" 
fill="black" stroke="rgb(0, 0, 0)" stroke-width="1.00" stroke-opacity="1.00" stroke-linejoin="round"/>
</g>
</svg>

