<?xml version="1.0" encoding="UTF-8" standalone="no"?>
<!DOCTYPE svg PUBLIC "-//W3C//DTD SVG 1.1//EN" "http://www.w3.org/Graphics/SVG/1.1/DTD/svg11.dtd">
<svg width="51.50" height="51.50" viewBox="0.00 0.00 103.00 103.00" xmlns="http://www.w3.org/2000/svg" xmlns:xlink="http://www.w3.org/1999/xlink">
<g stroke-linecap="round" transform="translate(-1750.00, -53.00)" id="lightT">
<path d="M1801.65,153.40 C1798.29,153.39 1790.31,152.09 1786.55,150.95 C1782.92,149.81 1776.09,146.20 1772.99,143.99 C1769.52,141.46 1764.76,136.72 1762.22,133.24 C1759.97,130.10 1756.41,123.31 1755.33,119.68 C1754.28,116.05 1753.10,107.88 1753.08,104.58 C1753.10,101.28 1754.28,93.10 1755.33,89.47 C1756.41,85.84 1759.97,79.04 1762.22,75.90 C1764.76,72.43 1769.52,67.68 1772.99,65.16 C1776.09,62.95 1782.92,59.34 1786.55,58.20 C1790.31,57.06 1798.29,55.76 1801.65,55.75 C1805.01,55.76 1813.00,57.06 1816.76,58.20 C1820.39,59.34 1827.23,62.95 1830.32,65.16 C1833.80,67.68 1838.55,72.43 1841.07,75.90 C1843.28,79.00 1846.89,85.84 1848.03,89.47 C1849.17,93.22 1850.47,101.21 1850.48,104.57 C1850.47,107.93 1849.17,115.92 1848.03,119.68 C1846.89,123.31 1843.28,130.15 1841.07,133.24 C1838.55,136.71 1833.80,141.46 1830.32,143.99 C1827.23,146.20 1820.39,149.81 1816.76,150.95 C1813.00,152.09 1805.01,153.39 1801.65,153.40 Z" 
fill="none" stroke="rgb(0, 0, 0)" stroke-width="1.00" stroke-opacity="1.00" stroke-linejoin="round"/>
<path d="M1805.57,55.58 L1823.75,79.00 L1834.55,68.76 L1840.63,75.45 L1831.00,85.50 L1850.29,100.81 L1850.41,109.16 L1831.00,123.50 L1840.80,132.67 L1834.26,140.06 L1823.75,130.00 L1806.76,153.72 L1796.57,153.36 L1779.00,130.00 L1768.18,139.80 L1761.71,132.22 L1771.75,123.50 L1753.82,108.61 L1753.51,100.65 L1771.75,85.50 L1762.10,75.90 L1768.56,69.09 L1779.00,79.00 L1797.52,55.35 L1805.57,55.58 Z" 
fill="none" stroke="rgb(0, 0, 0)" stroke-width="1.00" stroke-opacity="1.00" stroke-linejoin="miter"/>
<path d="M1813.90,106.02 L1801.00,119.19 L1788.60,106.88 L1801.68,93.80 L1813.90,106.02 Z" 
fill="none" stroke="rgb(0, 0, 0)" stroke-width="1.00" stroke-opacity="1.00" stroke-linejoin="miter"/>
</g>
</svg>
