<?xml version="1.0" encoding="UTF-8" standalone="no"?>
<!DOCTYPE svg PUBLIC "-//W3C//DTD SVG 1.1//EN" "http://www.w3.org/Graphics/SVG/1.1/DTD/svg11.dtd">
<svg width="960.00" height="1620.00" viewBox="0.00 0.00 1920.00 3240.00" xmlns="http://www.w3.org/2000/svg" xmlns:xlink="http://www.w3.org/1999/xlink">
<g stroke-linecap="round" id="star">
<path d="M1149.32,758.09 C1148.71,758.12 1140.88,754.17 1140.53,753.91 C1138.94,752.67 1138.15,750.91 1138.18,748.92 C1138.19,748.60 1137.48,701.88 1137.37,683.64 C1137.20,676.67 1136.46,655.67 1135.74,650.14 C1135.64,649.38 1128.98,609.17 1126.53,593.46 C1124.98,583.78 1123.12,574.93 1120.85,566.59 C1118.54,558.35 1116.14,551.53 1114.53,548.16 C1113.41,545.86 1108.44,541.26 1106.88,540.64 C1105.81,540.22 1101.17,539.34 1100.85,539.23 C1100.57,539.13 1093.76,535.98 1090.48,535.04 C1083.66,533.20 1067.23,529.81 1064.59,529.25 C1061.22,528.54 1052.54,527.35 1050.58,526.96 C1048.69,526.59 1043.99,524.65 1040.44,524.38 C1034.06,523.89 1030.02,522.57 1029.45,522.54 C1024.02,522.18 1019.71,521.05 1017.36,521.17 C1010.94,521.48 1006.19,521.01 1002.33,519.73 C1000.19,519.15 909.82,517.22 909.43,517.24 C907.39,517.28 905.76,516.75 904.18,515.49 C903.57,514.98 900.94,511.92 900.85,511.77 C899.84,510.15 899.24,507.58 899.18,505.36 C899.36,501.40 900.12,498.55 902.54,495.82 C903.10,495.23 905.74,492.79 907.01,492.38 C907.48,492.23 997.43,490.43 999.42,490.26 C1001.51,490.08 1008.17,488.09 1012.65,488.20 C1015.04,488.26 1020.03,488.51 1020.67,488.40 C1021.64,488.23 1024.09,487.34 1025.99,487.23 C1031.46,486.86 1035.46,485.48 1036.56,485.42 C1038.53,485.30 1042.52,485.00 1043.51,484.81 C1044.83,484.54 1049.42,482.68 1054.03,481.98 C1069.56,479.81 1090.78,474.47 1093.28,473.64 C1096.89,472.43 1100.85,470.25 1103.71,469.72 C1105.81,469.32 1107.79,468.53 1109.12,467.58 C1111.57,465.72 1114.09,462.61 1115.99,458.25 C1117.62,454.40 1122.59,436.58 1123.39,433.15 C1124.81,427.03 1130.70,389.61 1133.16,374.12 C1134.22,368.17 1136.25,356.74 1136.77,345.98 C1137.51,324.13 1138.22,258.54 1138.31,258.25 C1138.85,256.71 1145.63,251.85 1146.14,251.70 C1146.58,251.58 1147.61,251.49 1149.22,251.45 C1151.72,251.52 1152.93,251.85 1154.33,253.02 C1155.40,253.92 1157.93,255.40 1158.60,255.98 C1159.81,257.08 1160.34,258.59 1160.33,260.61 C1160.32,260.93 1160.98,307.63 1161.13,325.88 C1161.32,332.86 1162.10,353.87 1162.81,359.40 C1162.92,360.19 1169.56,400.37 1172.01,416.08 C1173.56,425.76 1175.42,434.61 1177.69,442.95 C1179.99,451.19 1182.40,458.01 1184.00,461.37 C1185.12,463.68 1190.10,468.28 1191.66,468.90 C1192.72,469.32 1197.37,470.20 1197.69,470.31 C1197.97,470.41 1204.78,473.56 1208.06,474.50 C1214.88,476.34 1231.31,479.73 1233.95,480.29 C1237.32,480.99 1246.00,482.19 1247.96,482.58 C1249.85,482.95 1254.55,484.89 1258.09,485.16 C1264.48,485.65 1268.51,486.96 1269.09,487.00 C1274.52,487.36 1278.82,488.49 1281.18,488.37 C1287.60,488.05 1292.34,488.53 1296.21,489.81 C1298.35,490.39 1388.72,492.31 1389.11,492.30 C1391.15,492.26 1392.80,492.79 1394.35,494.04 C1396.50,495.86 1399.24,500.34 1399.30,503.46 C1399.30,503.90 1399.32,504.54 1399.36,505.36 C1399.29,507.58 1398.70,510.15 1397.69,511.77 C1397.60,511.92 1394.97,514.98 1394.35,515.49 C1392.78,516.75 1391.15,517.28 1389.11,517.24 C1388.72,517.22 1298.24,519.18 1296.21,519.73 C1292.34,521.01 1287.60,521.48 1281.18,521.17 C1278.82,521.05 1274.52,522.18 1269.09,522.54 C1268.51,522.57 1264.48,523.89 1258.09,524.38 C1254.55,524.65 1249.85,526.59 1247.96,526.96 C1225.03,530.71 1214.88,533.20 1208.06,535.04 C1204.78,535.98 1197.97,539.13 1197.69,539.23 C1197.37,539.34 1192.72,540.22 1191.66,540.64 C1190.10,541.26 1185.12,545.86 1184.00,548.16 C1181.67,553.06 1177.71,566.13 1175.88,573.35 C1173.99,580.85 1162.50,651.90 1162.07,658.26 C1161.13,672.40 1160.32,748.61 1160.33,748.93 C1160.34,750.95 1159.81,752.46 1158.60,753.55 C1157.94,754.14 1155.35,755.65 1154.31,756.52 C1152.88,757.69 1150.35,758.00 1149.32,758.09 Z" fill="none" stroke="rgb(0, 0, 0)" stroke-width="1.00" stroke-opacity="1.00" stroke-linejoin="round"/>
</g>
</svg>
